<svg version="1.2" baseProfile="tiny-ps" xmlns="http://www.w3.org/2000/svg" viewBox="0 0 400 400" width="400" height="400">
	<g id="Group">
		<path fill-rule="evenodd" fill="#ecf6eb" d="M222.88 72.87C258.48 72.87 287.45 101.84 287.45 137.45C287.45 173.06 258.48 202.03 222.88 202.03C187.27 202.03 158.3 173.06 158.3 137.45C158.3 101.84 187.27 72.87 222.88 72.87ZM236.08 159.24L236.08 115.66C236.08 108.36 230.16 102.46 222.88 102.46C215.58 102.46 209.67 108.36 209.67 115.66L209.67 159.24C209.67 166.53 215.58 172.44 222.88 172.44C230.16 172.44 236.08 166.53 236.08 159.24Z" />
		<path fill="#93ca55" d="M71.41 349.4L294.84 349.4L294.84 368.42L71.41 368.42L71.41 349.4Z" />
		<path fill="#93ca55" d="M71.41 269.9L294.84 269.9L294.84 288.92L71.41 288.92L71.41 269.9Z" />
		<path fill-rule="evenodd" fill="#93ca55" d="M222.88 31.41C281.35 31.41 328.92 78.97 328.92 137.45C328.92 195.92 281.35 243.49 222.88 243.49C164.4 243.49 116.84 195.92 116.84 137.45C116.84 78.97 164.4 31.41 222.88 31.41ZM305.93 137.45C305.93 91.65 268.67 54.39 222.88 54.39C177.07 54.39 139.8 91.65 139.8 137.45C139.8 183.26 177.07 220.51 222.88 220.51C268.67 220.51 305.93 183.26 305.93 137.45Z" />
		<path fill-rule="evenodd" fill="#162021" d="M355.32 137.45C355.32 180.78 334.42 219.31 302.15 243.49L308.05 243.49C315.34 243.49 321.25 249.41 321.25 256.69L321.25 302.12C321.25 309.42 315.34 315.32 308.05 315.32L58.2 315.32C50.91 315.32 45 309.42 45 302.12L45 256.69C45 249.41 50.91 243.49 58.2 243.49L143.6 243.49C111.34 219.31 90.43 180.78 90.43 137.45C90.43 64.42 149.85 5 222.88 5C295.91 5 355.32 64.42 355.32 137.45ZM328.92 137.45C328.92 78.97 281.35 31.41 222.88 31.41C164.4 31.41 116.84 78.97 116.84 137.45C116.84 195.92 164.4 243.49 222.88 243.49C281.35 243.49 328.92 195.92 328.92 137.45ZM294.84 288.92L294.84 269.9L71.41 269.9L71.41 288.92L294.84 288.92Z" />
		<path fill-rule="evenodd" fill="#162021" d="M321.25 336.19L321.25 381.62C321.25 388.92 315.34 394.83 308.05 394.83L58.2 394.83C50.91 394.83 45 388.92 45 381.62L45 336.19C45 328.9 50.91 322.99 58.2 322.99L308.05 322.99C315.34 322.99 321.25 328.9 321.25 336.19ZM294.84 368.42L294.84 349.4L71.41 349.4L71.41 368.42L294.84 368.42Z" />
		<path fill-rule="evenodd" fill="#162021" d="M222.88 54.39C268.67 54.39 305.93 91.65 305.93 137.45C305.93 183.26 268.67 220.51 222.88 220.51C177.07 220.51 139.8 183.26 139.8 137.45C139.8 91.65 177.07 54.39 222.88 54.39ZM287.45 137.45C287.45 101.84 258.48 72.87 222.88 72.87C187.27 72.87 158.3 101.84 158.3 137.45C158.3 173.06 187.27 202.03 222.88 202.03C258.48 202.03 287.45 173.06 287.45 137.45Z" />
		<path fill="#000000" d="M236.08 115.66L236.08 159.24C236.08 166.53 230.16 172.44 222.88 172.44C215.58 172.44 209.67 166.53 209.67 159.24L209.67 115.66C209.67 108.36 215.58 102.46 222.88 102.46C230.16 102.46 236.08 108.36 236.08 115.66Z" />
	</g>
</svg>