<svg version="1.2" baseProfile="tiny-ps" xmlns="http://www.w3.org/2000/svg" viewBox="0 0 400 400" width="400" height="400">
	<g id="menu-svgrepo-com">
		<g id="Group 21">
			<g id="Group 20">
				<path id="Path 14" fill-rule="evenodd" class="shp0" d="M25.67 6.53L193.2 6.53L193.2 393.15L25.67 393.15C18.56 393.15 12.78 387.37 12.78 380.26L12.78 19.42C12.78 12.31 18.56 6.53 25.67 6.53ZM180.32 341.6C180.32 338.04 177.43 335.16 173.87 335.16L154.54 335.16C150.99 335.16 148.1 338.04 148.1 341.6C148.1 345.16 150.99 348.04 154.54 348.04L173.87 348.04C177.43 348.04 180.32 345.16 180.32 341.6ZM180.32 283.61C180.32 280.04 177.43 277.17 173.87 277.17L154.54 277.17C150.99 277.17 148.1 280.04 148.1 283.61C148.1 287.17 150.99 290.05 154.54 290.05L173.87 290.05C177.43 290.05 180.32 287.17 180.32 283.61ZM180.32 225.62C180.32 222.05 177.43 219.17 173.87 219.17L154.54 219.17C150.99 219.17 148.1 222.05 148.1 225.62C148.1 229.18 150.99 232.06 154.54 232.06L173.87 232.06C177.43 232.06 180.32 229.18 180.32 225.62ZM173.87 161.18L154.54 161.18C150.99 161.18 148.1 164.06 148.1 167.62C148.1 171.19 150.99 174.07 154.54 174.07L173.87 174.07C177.43 174.07 180.32 171.19 180.32 167.62C180.32 164.06 177.43 161.18 173.87 161.18ZM57.17 90.3C57.17 93.86 60.05 96.74 63.62 96.74L155.26 96.74C158.82 96.74 161.7 93.86 161.7 90.3C161.7 61.4 138.74 38.75 109.44 38.75C80.13 38.75 57.17 61.4 57.17 90.3ZM51.45 116.07C51.45 119.64 54.33 122.52 57.89 122.52L160.99 122.52C164.54 122.52 167.43 119.64 167.43 116.07C167.43 112.51 164.54 109.63 160.99 109.63L57.89 109.63C54.33 109.63 51.45 112.51 51.45 116.07ZM38.56 167.62C38.56 171.19 41.44 174.07 45 174.07L115.88 174.07C119.44 174.07 122.32 171.19 122.32 167.62C122.32 164.06 119.44 161.18 115.88 161.18L45 161.18C41.44 161.18 38.56 164.06 38.56 167.62ZM38.56 225.62C38.56 229.18 41.44 232.06 45 232.06L115.88 232.06C119.44 232.06 122.32 229.18 122.32 225.62C122.32 222.05 119.44 219.17 115.88 219.17L45 219.17C41.44 219.17 38.56 222.05 38.56 225.62ZM38.56 283.61C38.56 287.17 41.44 290.05 45 290.05L115.88 290.05C119.44 290.05 122.32 287.17 122.32 283.61C122.32 280.04 119.44 277.16 115.88 277.16L45 277.16C41.44 277.16 38.56 280.04 38.56 283.61ZM38.56 341.6C38.56 345.16 41.44 348.04 45 348.04L115.88 348.04C119.44 348.04 122.32 345.16 122.32 341.6C122.32 338.04 119.44 335.16 115.88 335.16L45 335.16C41.44 335.16 38.56 338.04 38.56 341.6Z" />
				<path id="Path 15" fill="#162021" d="M109.44 51.64C89.6 51.64 73.62 65.35 70.58 83.86L148.29 83.86C145.26 65.35 129.28 51.64 109.44 51.64Z" />
				<path id="Path 16" fill-rule="evenodd" class="shp0" d="M386.51 19.42L386.51 380.26C386.51 387.37 380.73 393.15 373.62 393.15L206.09 393.15L206.09 6.53L373.62 6.53C380.73 6.53 386.51 12.31 386.51 19.42ZM302.74 341.6C302.74 338.04 299.86 335.16 296.3 335.16L225.42 335.16C221.86 335.16 218.98 338.04 218.98 341.6C218.98 345.16 221.86 348.04 225.42 348.04L296.3 348.04C299.86 348.04 302.74 345.16 302.74 341.6ZM302.74 283.61C302.74 280.04 299.86 277.17 296.3 277.17L225.42 277.17C221.86 277.17 218.98 280.04 218.98 283.61C218.98 287.17 221.86 290.05 225.42 290.05L296.3 290.05C299.86 290.05 302.74 287.17 302.74 283.61ZM302.74 225.62C302.74 222.05 299.86 219.17 296.3 219.17L225.42 219.17C221.86 219.17 218.98 222.05 218.98 225.62C218.98 229.18 221.86 232.06 225.42 232.06L296.3 232.06C299.86 232.06 302.74 229.18 302.74 225.62ZM302.74 167.62C302.74 164.06 299.86 161.18 296.3 161.18L225.42 161.18C221.86 161.18 218.98 164.06 218.98 167.62C218.98 171.19 221.86 174.07 225.42 174.07L296.3 174.07C299.86 174.07 302.74 171.19 302.74 167.62ZM302.74 109.63C302.74 106.07 299.86 103.19 296.3 103.19L225.42 103.19C221.86 103.19 218.98 106.07 218.98 109.63C218.98 113.2 221.86 116.08 225.42 116.08L296.3 116.08C299.86 116.08 302.74 113.2 302.74 109.63ZM302.74 51.64C302.74 48.08 299.86 45.2 296.3 45.2L225.42 45.2C221.86 45.2 218.98 48.08 218.98 51.64C218.98 55.2 221.86 58.08 225.42 58.08L296.3 58.08C299.86 58.08 302.74 55.2 302.74 51.64ZM360.74 341.6C360.74 338.04 357.85 335.16 354.29 335.16L334.96 335.16C331.41 335.16 328.52 338.04 328.52 341.6C328.52 345.16 331.41 348.04 334.96 348.04L354.29 348.04C357.85 348.04 360.74 345.16 360.74 341.6ZM360.74 283.61C360.74 280.04 357.85 277.17 354.29 277.17L334.96 277.17C331.41 277.17 328.52 280.04 328.52 283.61C328.52 287.17 331.41 290.05 334.96 290.05L354.29 290.05C357.85 290.05 360.74 287.17 360.74 283.61ZM360.74 225.62C360.74 222.05 357.85 219.17 354.29 219.17L334.96 219.17C331.41 219.17 328.52 222.05 328.52 225.62C328.52 229.18 331.41 232.06 334.96 232.06L354.29 232.06C357.85 232.06 360.74 229.18 360.74 225.62ZM360.74 167.62C360.74 164.06 357.85 161.18 354.29 161.18L334.96 161.18C331.41 161.18 328.52 164.06 328.52 167.62C328.52 171.19 331.41 174.07 334.96 174.07L354.29 174.07C357.85 174.07 360.74 171.19 360.74 167.62ZM360.74 109.63C360.74 106.07 357.85 103.19 354.29 103.19L334.96 103.19C331.41 103.19 328.52 106.07 328.52 109.63C328.52 113.2 331.41 116.08 334.96 116.08L354.29 116.08C357.85 116.08 360.74 113.19 360.74 109.63ZM360.74 51.64C360.74 48.08 357.85 45.2 354.29 45.2L334.96 45.2C331.41 45.2 328.52 48.08 328.52 51.64C328.52 55.2 331.41 58.08 334.96 58.08L354.29 58.08C357.85 58.08 360.74 55.2 360.74 51.64Z" />
			</g>
		</g>
	</g>
</svg>