<svg version="1.2" baseProfile="tiny-ps" xmlns="http://www.w3.org/2000/svg" viewBox="0 0 400 400" width="400" height="400">
	<title>New Project</title>
	<style>
		tspan { white-space:pre }
		.shp0 { fill: none } 
		.shp1 { fill: #93ca55 } 
		.shp2 { fill: #162021 } 
	</style>
	<g id="loudspeaker-svgrepo-com">
		<g id="Group 26">
			<path id="Path 35" class="shp0" d="M144.02 104.14L144.02 217.46C157.38 219 182.96 222.61 213.17 230.1C262.06 242.22 302.09 259.11 332.53 280.43L332.53 40.55C302.09 61.9 262.03 78.9 213.1 91.21C182.98 98.79 157.44 102.52 144.02 104.14Z" />
			<path id="Path 36" class="shp0" d="M24.93 161.61C25.32 186.46 40.64 207.48 61.21 214.18L61.21 107.22C39.96 113.97 24.52 135.91 24.93 161.61Z" />
			<path id="Path 37" class="shp1" d="M122.56 105.07L82.67 105.07L82.67 216.42L122.56 216.42L122.56 105.07Z" />
			<path id="Path 38" class="shp1" d="M193.1 339.99L164.62 242.08C147.03 239.18 135.05 238.07 132.85 237.88L112.63 237.88L146.37 353.88C146.4 353.98 146.44 354.08 146.47 354.19C150.47 366.71 163.99 373.87 176.59 370.14C189.2 366.41 196.64 353.05 193.19 340.36C193.16 340.23 193.13 340.11 193.1 339.99Z" />
			<path id="Path 39" fill-rule="evenodd" class="shp2" d="M397.51 159.49C397.94 186.97 378.87 210 353.99 213.45L353.99 302.43C353.99 306.64 351.53 310.46 347.69 312.2C346.27 312.85 344.77 313.16 343.27 313.16C340.71 313.16 338.19 312.25 336.19 310.5C295.14 274.52 233.09 255.83 188.25 246.48L213.87 334.54C213.94 334.81 214.01 335.08 214.07 335.36C217.01 346.78 215.47 358.72 209.72 369.05C203.86 379.6 194.25 387.29 182.68 390.72C178.39 391.99 174 392.62 169.63 392.62C162.24 392.62 154.91 390.81 148.21 387.25C137.77 381.72 129.99 372.54 126.24 361.37C126.12 361.07 126.02 360.77 125.93 360.45L90.28 237.88C90.28 237.88 75.57 237.89 75.22 237.89C56.13 237.89 38.17 229.91 24.62 215.42C11.3 201.16 3.79 182.17 3.47 161.95C2.8 119.42 34.4 84.28 73.91 83.61L74.22 83.61C74.32 83.61 74.42 83.61 74.51 83.61C74.68 83.61 74.85 83.6 75.01 83.6L75.01 83.6L133.3 83.61C133.54 83.61 133.77 83.63 134 83.65C150.13 82.03 270.39 68.15 336.19 10.48C339.36 7.7 343.86 7.04 347.69 8.78C351.53 10.51 354 14.34 354 18.55L354 107.2C364.01 108.62 373.41 113.23 381.01 120.58C391.26 130.51 397.28 144.69 397.51 159.49ZM193.19 340.36C193.16 340.23 193.13 340.11 193.1 339.99L164.62 242.08C147.03 239.18 135.05 238.07 132.84 237.88L112.63 237.88L146.37 353.88C146.4 353.98 146.44 354.08 146.47 354.19C150.47 366.71 163.99 373.87 176.59 370.13C189.2 366.41 196.64 353.05 193.19 340.36ZM82.67 216.42L122.56 216.42L122.56 105.07L82.67 105.07L82.67 216.42ZM61.21 107.22C39.96 113.97 24.52 135.91 24.93 161.61C25.32 186.46 40.63 207.48 61.21 214.18L61.21 107.22ZM332.53 40.55C302.08 61.9 262.03 78.9 213.1 91.21C182.98 98.79 157.44 102.52 144.02 104.14L144.02 217.46C157.38 219 182.96 222.61 213.17 230.1C262.06 242.22 302.09 259.11 332.53 280.43L332.53 40.55ZM376.05 159.82C375.91 150.68 372.27 142 366.08 136C362.57 132.61 358.42 130.25 353.99 129.07L353.99 191.63C366.79 188.3 376.29 175.23 376.05 159.82Z" />
		</g>
	</g>
</svg>