<svg version="1.2" baseProfile="tiny-ps" xmlns="http://www.w3.org/2000/svg" viewBox="0 0 512 512" width="512" height="512">
	<path id="Layer" fill="#ffffff" d="M448 0L64 0C28.7 0 0 28.7 0 64L0 448C0 483.3 28.7 512 64 512L448 512C483.3 512 512 483.3 512 448L512 64C512 28.7 483.3 0 448 0Z" />
	<g id="group">
		<path id="Layer" fill="#fbbb00" d="M147.74 296.57L134.2 347.1L84.73 348.15C69.94 320.72 61.55 289.34 61.55 256C61.55 223.76 69.4 193.35 83.3 166.58L83.31 166.58L127.35 174.65L146.65 218.44C142.61 230.21 140.41 242.85 140.41 256C140.41 270.27 143 283.95 147.74 296.57Z" />
		<path id="Layer" fill="#518ef8" d="M447.05 219.68C449.28 231.44 450.45 243.59 450.45 256C450.45 269.92 448.98 283.5 446.19 296.6C436.73 341.17 411.99 380.09 377.73 407.64L377.72 407.62L322.24 404.79L314.39 355.78C337.12 342.44 354.89 321.58 364.25 296.6L260.27 296.6L260.27 219.68L365.77 219.68L447.05 219.68L447.05 219.68Z" />
		<path id="Layer" fill="#28b446" d="M377.72 407.62L377.73 407.64C344.41 434.42 302.08 450.45 256 450.45C181.95 450.45 117.57 409.06 84.73 348.15L147.74 296.57C164.16 340.39 206.44 371.59 256 371.59C277.3 371.59 297.26 365.83 314.39 355.78L377.72 407.62Z" />
		<path id="Layer" fill="#f14336" d="M380.11 106.32L317.12 157.89C299.4 146.81 278.45 140.41 256 140.41C205.32 140.41 162.25 173.04 146.65 218.44L83.31 166.58L83.3 166.58C115.66 104.18 180.85 61.55 256 61.55C303.18 61.55 346.44 78.36 380.11 106.32Z" />
	</g>
</svg>