<svg version="1.2" baseProfile="tiny-ps" xmlns="http://www.w3.org/2000/svg" viewBox="0 0 400 400" width="400" height="400">
	<title>New Project</title>
	<style>
		tspan { white-space:pre }
		.shp0 { fill: #162021 } 
	</style>
	<g id="Group 19">
		<g id="car-placeholder">
			<path id="Path 10" fill-rule="evenodd" class="shp0" d="M341.62 147.59C341.62 194.68 297.81 269.48 278.98 299.45C263.6 323.92 247.07 347.31 232.43 365.29C208.76 394.35 202.35 394.35 199.62 394.35C196.77 394.35 190.1 394.35 166.35 365.29C151.74 347.43 135.22 324.04 119.83 299.44C101.13 269.54 57.62 194.89 57.62 147.59C57.62 69.29 121.32 5.59 199.62 5.59C277.92 5.59 341.62 69.29 341.62 147.59ZM311.96 149.96C311.96 88.01 261.56 37.62 199.62 37.62C137.68 37.62 87.28 88.01 87.28 149.96C87.28 211.9 137.68 262.29 199.62 262.29C261.56 262.29 311.96 211.9 311.96 149.96Z" />
		</g>
		<g id="fork-and-knife-svgrepo-com">
			<g id="Group 18">
				<path id="Path 11" class="shp0" d="M275.73 97.28L251.31 120.7C250.37 121.64 248.51 122.22 247.31 121.02L247.31 121.02L246.66 120.37L246.66 120.37L246.66 120.37C245.46 119.17 246.16 117.19 247.13 116.22L269.17 90.34C268.67 89.85 268.17 89.35 267.65 88.82C266.73 87.9 265.87 87.04 265.06 86.23L238.84 108.59C237.97 109.48 236.23 109.94 235.03 108.74L235.03 108.74L234.38 108.09L234.38 108.09L234.38 108.09C233.18 106.89 233.88 104.91 234.85 103.94L258.03 79.77C250.65 74.39 246.17 78.87 226.57 98.48C219.95 105.09 216.82 113.48 218.42 121.27C218.64 122.33 218.94 123.39 219.34 124.43C219.74 125.45 220.24 126.46 220.82 127.45L136.21 207.74C134.49 209.46 136.75 214.53 138.47 216.25L141.31 219.09C143.03 220.81 148.09 223.07 149.81 221.35L230.41 136.43C231.47 136.95 232.56 137.34 233.66 137.66C235.01 138.06 236.38 138.3 237.77 138.4C244.8 138.92 252.1 135.8 257.99 129.91C278.33 109.57 281.99 105.12 275.73 97.28Z" />
				<path id="Path 12" class="shp0" d="M169.77 150.45L182.54 163.21C183.89 164.56 185.53 165.43 187.24 165.86C187.34 163.8 188.85 162.26 189.61 161.51C190.16 160.96 190.79 160.39 191.46 159.79C192.17 159.16 192.91 158.49 193.65 157.75L194.36 157.04C195.1 156.3 195.77 155.55 196.4 154.85C197 154.18 197.57 153.55 198.12 153C198.88 152.24 200.41 150.73 202.47 150.63C202.04 148.92 201.18 147.28 199.82 145.93L133.17 79.27C118.23 93.81 165.89 146.57 169.77 150.45Z" />
				<path id="Path 13" class="shp0" d="M200.38 155.27C199.87 155.78 199.35 156.37 198.79 156.99C198.12 157.74 197.41 158.53 196.63 159.31L195.92 160.02C195.14 160.8 194.34 161.51 193.6 162.18C192.98 162.73 192.39 163.26 191.88 163.77C190.91 164.74 190.42 165.42 190.43 166.12C190.45 166.71 190.82 167.31 191.63 168.12L242.07 218.57C245.62 222.12 251.3 222.23 254.71 218.81L255.42 218.1C258.84 214.68 258.73 209.02 255.17 205.47L204.73 155.02C203.92 154.21 203.31 153.84 202.73 153.82C202.03 153.81 201.35 154.3 200.38 155.27Z" />
			</g>
		</g>
	</g>
</svg>