<svg version="1.2" baseProfile="tiny-ps" xmlns="http://www.w3.org/2000/svg" viewBox="0 0 400 400" width="400" height="400">
	<title>New Project</title>
	<style>
		tspan { white-space:pre }
		.shp0 { fill: #162021 } 
	</style>
	<path id="food-delivery-app-phone-smartphone-svgrepo-com" fill-rule="evenodd" class="shp0" d="M367.63 393.34L244.67 393.34L191.26 362.6L261.19 362.6C263.1 362.6 264.72 361.76 264.87 359.81C265.01 357.96 263.37 356.45 261.52 356.45L85.97 356.45C67.83 356.45 51 340.92 51 322.63L51 41.35C51 22.25 67.25 6 86.35 6L260.04 6C278.03 6 292.32 20.28 292.32 38.28L292.32 215.04L302.08 215.04C308.53 215.04 314.07 218.88 316.22 225.03L367.63 393.34ZM182.65 332.78C182.65 327.86 178.96 324.17 174.04 324.17C169.36 324.17 165.43 328.1 165.43 332.78C165.44 337.7 169.12 341.38 174.04 341.38C178.96 341.38 182.49 337.7 182.65 332.78ZM269.26 50.57L75.59 50.57L75.59 310.34L269.49 310.34L269.49 245.78L239.06 245.78C230.91 245.78 224 238.56 224 230.41C224 222.26 230.91 215.04 239.06 215.04L269.26 215.04L269.26 50.57ZM117.19 103.75L109.04 75.55L113.73 74.23L122.28 103.85L165.14 103.85L154.76 185.71L119.73 185.71L109.25 103.85L117.19 103.75ZM170.13 151.6C170.13 151.6 168.81 139.69 187.03 139.69L216.05 139.69C234.18 139.69 232.95 151.6 232.95 151.6L170.13 151.6ZM232.85 173.8C232.85 173.8 234.07 185.71 215.95 185.71L187.03 185.71C168.81 185.71 170.13 173.8 170.13 173.8L232.85 173.8ZM172.88 168C169.93 168 167.48 165.66 167.48 162.6C167.48 159.65 169.83 157.2 172.88 157.2L230.51 157.2C233.46 157.2 235.9 159.55 235.9 162.6C235.9 165.55 233.46 168 230.51 168L172.88 168ZM106.8 201.8L106.8 191.92L237.13 191.92L237.13 201.8L106.8 201.8Z" />
</svg>