<svg version="1.2" baseProfile="tiny-ps" xmlns="http://www.w3.org/2000/svg" viewBox="0 0 400 400" width="400" height="400">
	<title>New Project</title>
	<style>
		tspan { white-space:pre }
		.shp0 { fill: #162021 } 
		.shp1 { fill: #93ca55 } 
	</style>
	<g id="Group 25">
		<g id="menu-svgrepo-com (1)">
			<g id="Group 22">
				<path id="Path 17" class="shp0" d="M317.81 393.73L81.59 393.73C51.95 393.73 27.84 369.62 27.84 339.98L27.84 97.4C27.84 67.76 51.95 43.64 81.59 43.64L317.81 43.64C347.45 43.64 371.56 67.76 371.56 97.4L371.56 258.91C371.56 265.03 366.6 269.99 360.48 269.99C354.36 269.99 349.4 265.03 349.4 258.91L349.4 97.4C349.4 79.98 335.23 65.81 317.81 65.81L81.59 65.81C64.17 65.81 50 79.98 50 97.4L50 339.98C50 357.4 64.17 371.57 81.59 371.57L317.81 371.57C335.23 371.57 349.4 357.4 349.4 339.98L349.4 318.74C349.4 312.62 354.36 307.66 360.48 307.66C366.6 307.66 371.56 312.62 371.56 318.74L371.56 339.98C371.56 369.62 347.45 393.73 317.81 393.73Z" />
			</g>
			<path id="Path 24" class="shp1" d="M360.48 138.89L360.48 97.4C360.48 73.83 341.38 54.73 317.81 54.73L81.59 54.73C58.02 54.73 38.92 73.83 38.92 97.4L38.92 138.89L360.48 138.89L360.48 138.89Z" />
			<g id="Group 24">
				<path id="Path 25" fill-rule="evenodd" class="shp0" d="M360.48 149.97L38.92 149.97C32.8 149.97 27.84 145.01 27.84 138.89L27.84 97.4C27.84 67.76 51.95 43.64 81.59 43.64L317.81 43.64C347.45 43.64 371.56 67.76 371.56 97.4L371.56 138.89C371.56 145.01 366.6 149.97 360.48 149.97ZM50 127.81L349.4 127.81L349.4 97.4C349.4 79.98 335.23 65.81 317.81 65.81L81.59 65.81C64.17 65.81 50 79.98 50 97.4C50 97.4 50 127.81 50 127.81Z" />
				<path id="Path 26" class="shp0" d="M118.3 82.37C112.18 82.37 107.22 77.41 107.22 71.29L107.22 16.99C107.22 10.87 112.18 5.91 118.3 5.91C124.42 5.91 129.38 10.87 129.38 16.99L129.38 71.29C129.38 77.41 124.42 82.37 118.3 82.37Z" />
				<path id="Path 27" class="shp0" d="M290.01 82.37C283.89 82.37 278.92 77.41 278.92 71.29L278.92 16.99C278.92 10.87 283.89 5.91 290.01 5.91C296.13 5.91 301.09 10.87 301.09 16.99L301.09 71.29C301.09 77.41 296.13 82.37 290.01 82.37Z" />
			</g>
		</g>
		<g id="fork-and-knife-svgrepo-com">
			<g id="Group 18">
				<path id="Path 11" class="shp1" d="M291.91 195.7L262.33 224.06C261.18 225.21 258.93 225.91 257.47 224.45L257.47 224.45L256.69 223.67L256.69 223.67L256.69 223.67C255.24 222.22 256.09 219.82 257.26 218.65L283.96 187.29C283.36 186.7 282.75 186.09 282.11 185.45C281 184.34 279.96 183.29 278.98 182.3L247.22 209.4C246.17 210.47 244.05 211.03 242.6 209.58L242.6 209.58L241.82 208.8L241.82 208.8L241.82 208.8C240.36 207.34 241.21 204.94 242.38 203.77L270.46 174.48C261.52 167.97 256.1 173.39 232.34 197.15C224.33 205.16 220.54 215.32 222.47 224.76C222.74 226.05 223.11 227.32 223.59 228.58C224.07 229.83 224.68 231.05 225.38 232.24L122.88 329.52C120.79 331.6 123.53 337.75 125.62 339.83L129.05 343.26C131.13 345.35 137.27 348.09 139.36 346.01L237 243.12C238.28 243.75 239.6 244.23 240.94 244.62C242.57 245.1 244.23 245.39 245.91 245.51C254.43 246.14 263.28 242.36 270.41 235.22C295.05 210.58 299.49 205.19 291.91 195.7Z" />
				<path id="Path 12" class="shp1" d="M163.53 260.11L179 275.57C180.64 277.21 182.62 278.26 184.7 278.78C184.82 276.29 186.65 274.43 187.57 273.51C188.24 272.84 189.01 272.16 189.81 271.43C190.67 270.67 191.57 269.85 192.47 268.96L193.33 268.1C194.22 267.2 195.03 266.29 195.8 265.44C196.52 264.63 197.21 263.87 197.88 263.2C198.8 262.28 200.66 260.45 203.15 260.33C202.63 258.25 201.58 256.27 199.94 254.63L119.19 173.87C101.09 191.49 158.83 255.41 163.53 260.11Z" />
				<path id="Path 13" class="shp1" d="M200.62 265.95C200 266.57 199.37 267.28 198.69 268.03C197.89 268.94 197.02 269.9 196.08 270.84L195.21 271.71C194.27 272.65 193.31 273.51 192.41 274.32C191.65 274.99 190.94 275.63 190.32 276.25C189.15 277.42 188.55 278.24 188.57 279.09C188.58 279.81 189.03 280.54 190.02 281.52L251.13 342.64C255.43 346.94 262.31 347.07 266.44 342.94L267.3 342.07C271.44 337.93 271.31 331.07 267 326.76L205.89 265.65C204.91 264.67 204.17 264.22 203.46 264.2C202.62 264.18 201.8 264.78 200.62 265.95Z" />
			</g>
		</g>
	</g>
</svg>