<svg version="1.2" baseProfile="tiny-ps" xmlns="http://www.w3.org/2000/svg" viewBox="0 0 100 26" width="100" height="26">
	<title>New Project</title>
	<style>
		tspan { white-space:pre }
		.shp0 { fill: #040505 } 
	</style>
	<g id="Group 39">
		<g id="Group 37">
			<g id="Group 36">
				<path id="Path 56" class="shp0" d="M34.5 20.17L36.88 20.17L36.88 20.68L35.06 20.68L35.06 21.55L36.67 21.55L36.67 22.06L35.06 22.06L35.06 23.36L34.5 23.36L34.5 20.17Z" />
				<path id="Path 57" class="shp0" d="M37.85 20.17L38.41 20.17L38.41 23.36L37.85 23.36L37.85 20.17Z" />
				<path id="Path 58" class="shp0" d="M39.59 20.17L40.1 20.17L41.82 22.38L41.82 20.17L42.37 20.17L42.37 23.36L41.9 23.36L40.14 21.09L40.14 23.36L39.59 23.36L39.59 20.17Z" />
				<path id="Path 59" fill-rule="evenodd" class="shp0" d="M43.51 20.17L44.7 20.17C45.71 20.17 46.4 20.86 46.4 21.76L46.4 21.76C46.4 22.66 45.71 23.36 44.7 23.36L43.51 23.36L43.51 20.17ZM44.7 22.85C45.37 22.85 45.81 22.4 45.81 21.77L45.81 21.76C45.81 21.14 45.37 20.68 44.7 20.68L44.07 20.68L44.07 22.85L44.7 22.85Z" />
				<path id="Path 60" class="shp0" d="M50.03 22.1L48.76 20.17L49.42 20.17L50.32 21.58L51.22 20.17L51.87 20.17L50.6 22.09L50.6 23.36L50.03 23.36L50.03 22.1Z" />
				<path id="Path 61" fill-rule="evenodd" class="shp0" d="M52.27 21.77L52.27 21.76C52.27 20.87 52.96 20.11 53.94 20.11C54.92 20.11 55.61 20.86 55.61 21.76L55.61 21.76C55.61 22.66 54.91 23.42 53.93 23.42C52.95 23.42 52.27 22.67 52.27 21.77ZM55.02 21.77L55.02 21.76C55.02 21.14 54.57 20.63 53.93 20.63C53.3 20.63 52.85 21.14 52.85 21.76L52.85 21.76C52.85 22.38 53.31 22.9 53.94 22.9C54.57 22.9 55.02 22.39 55.02 21.77Z" />
				<path id="Path 62" class="shp0" d="M56.56 22.01L56.56 20.17L57.12 20.17L57.12 21.98C57.12 22.58 57.42 22.9 57.93 22.9C58.42 22.9 58.73 22.59 58.73 22.01L58.73 20.17L59.29 20.17L59.29 21.98C59.29 22.93 58.75 23.41 57.92 23.41C57.09 23.41 56.56 22.93 56.56 22.01Z" />
				<path id="Path 63" fill-rule="evenodd" class="shp0" d="M60.38 20.17L61.81 20.17C62.21 20.17 62.52 20.29 62.73 20.49C62.9 20.66 62.99 20.9 62.99 21.18L62.99 21.18C62.99 21.71 62.68 22.02 62.23 22.15L63.09 23.36L62.43 23.36L61.65 22.25L60.95 22.25L60.95 23.36L60.38 23.36L60.38 20.17ZM61.77 21.75C62.17 21.75 62.42 21.54 62.42 21.22L62.42 21.21C62.42 20.87 62.18 20.68 61.76 20.68L60.95 20.68L60.95 21.75L61.77 21.75Z" />
				<path id="Path 64" class="shp0" d="M65.69 20.17L66.26 20.17L66.26 21.5L67.78 21.5L67.78 20.17L68.34 20.17L68.34 23.36L67.78 23.36L67.78 22.02L66.26 22.02L66.26 23.36L65.69 23.36L65.69 20.17Z" />
				<path id="Path 65" fill-rule="evenodd" class="shp0" d="M70.62 20.15L71.14 20.15L72.54 23.36L71.95 23.36L71.63 22.59L70.11 22.59L69.79 23.36L69.21 23.36L70.62 20.15ZM71.42 22.09L70.87 20.82L70.32 22.09L71.42 22.09Z" />
				<path id="Path 66" fill-rule="evenodd" class="shp0" d="M73.41 20.17L74.67 20.17C75.41 20.17 75.88 20.59 75.88 21.24L75.88 21.25C75.88 21.96 75.31 22.34 74.61 22.34L73.97 22.34L73.97 23.36L73.41 23.36L73.41 20.17ZM74.62 21.83C75.05 21.83 75.31 21.59 75.31 21.26L75.31 21.25C75.31 20.88 75.04 20.68 74.62 20.68L73.97 20.68L73.97 21.83L74.62 21.83Z" />
				<path id="Path 67" fill-rule="evenodd" class="shp0" d="M76.78 20.17L78.04 20.17C78.78 20.17 79.25 20.59 79.25 21.24L79.25 21.25C79.25 21.96 78.68 22.34 77.98 22.34L77.34 22.34L77.34 23.36L76.78 23.36L76.78 20.17ZM78 21.83C78.42 21.83 78.68 21.59 78.68 21.26L78.68 21.25C78.68 20.88 78.42 20.68 78 20.68L77.34 20.68L77.34 21.83L78 21.83Z" />
				<path id="Path 68" class="shp0" d="M81.05 22.1L79.78 20.17L80.44 20.17L81.33 21.58L82.24 20.17L82.88 20.17L81.61 22.09L81.61 23.36L81.05 23.36L81.05 22.1Z" />
				<path id="Path 69" class="shp0" d="M85.17 22.9L85.51 22.49C85.81 22.76 86.12 22.91 86.52 22.91C86.86 22.91 87.08 22.75 87.08 22.51L87.08 22.5C87.08 22.27 86.95 22.15 86.36 22.01C85.68 21.85 85.3 21.65 85.3 21.06L85.3 21.05C85.3 20.5 85.75 20.12 86.39 20.12C86.85 20.12 87.22 20.26 87.55 20.52L87.25 20.95C86.96 20.73 86.67 20.62 86.38 20.62C86.05 20.62 85.86 20.79 85.86 21L85.86 21.01C85.86 21.25 86 21.36 86.62 21.51C87.29 21.67 87.64 21.92 87.64 22.44L87.64 22.45C87.64 23.05 87.17 23.41 86.5 23.41C86.01 23.41 85.55 23.24 85.17 22.9Z" />
				<path id="Path 70" class="shp0" d="M88.63 20.17L90.99 20.17L90.99 20.67L89.19 20.67L89.19 21.5L90.79 21.5L90.79 22L89.19 22L89.19 22.86L91.02 22.86L91.02 23.36L88.63 23.36L88.63 20.17Z" />
				<path id="Path 71" class="shp0" d="M92.01 20.17L92.57 20.17L92.57 22.85L94.25 22.85L94.25 23.36L92.01 23.36L92.01 20.17Z" />
				<path id="Path 72" class="shp0" d="M95.15 20.17L97.53 20.17L97.53 20.68L95.71 20.68L95.71 21.55L97.32 21.55L97.32 22.06L95.71 22.06L95.71 23.36L95.15 23.36L95.15 20.17Z" />
			</g>
		</g>
		<g id="Group 38">
			<path id="Path 73" fill-rule="evenodd" class="shp0" d="M15.5 10.19C15.5 12.44 14.78 14.33 13.34 15.85C11.88 17.39 10.03 18.16 7.79 18.16C5.56 18.16 3.71 17.38 2.24 15.83C0.79 14.3 0.07 12.43 0.07 10.19C0.07 7.95 0.79 6.06 2.24 4.53C3.71 2.97 5.56 2.18 7.79 2.18C10 2.18 11.84 2.97 13.32 4.53C14.77 6.07 15.5 7.96 15.5 10.19ZM11.4 10.17C11.4 9.09 11.07 8.17 10.41 7.41C9.73 6.62 8.85 6.22 7.79 6.22C6.77 6.22 5.91 6.63 5.2 7.45C4.51 8.25 4.17 9.16 4.17 10.19C4.17 11.29 4.49 12.21 5.13 12.95C5.81 13.72 6.7 14.11 7.79 14.11C8.8 14.11 9.67 13.7 10.38 12.88C11.06 12.1 11.4 11.2 11.4 10.17Z" />
			<path id="Path 74" class="shp0" d="M32.07 17.43C32.07 17.58 32.04 17.67 31.97 17.71C31.94 17.73 31.84 17.75 31.67 17.76C31.23 17.81 30.61 17.83 29.81 17.83C28.68 17.83 28.01 17.81 27.81 17.76C27.61 17.72 27.52 17.62 27.52 17.47C27.52 16.9 27.54 16.04 27.6 14.9C27.65 13.76 27.68 12.9 27.68 12.33C27.68 12.05 27.6 11.89 27.44 11.84C27.19 11.79 26.32 11.76 24.82 11.76C23.31 11.76 22.43 11.79 22.18 11.84C22.02 11.88 21.94 12.04 21.94 12.33C21.94 12.89 21.96 13.74 22 14.86C22.03 15.98 22.05 16.82 22.05 17.38C22.05 17.6 21.96 17.73 21.76 17.76C21.53 17.81 20.85 17.83 19.73 17.83C18.75 17.83 18.13 17.81 17.87 17.76C17.66 17.73 17.55 17.61 17.55 17.43C17.55 16.65 17.59 15.47 17.67 13.9C17.74 12.33 17.78 11.15 17.78 10.36C17.78 9.53 17.74 8.27 17.67 6.59C17.6 4.92 17.56 3.66 17.56 2.82C17.56 2.66 17.64 2.58 17.79 2.58C18.01 2.58 18.35 2.6 18.8 2.62C19.25 2.64 19.59 2.65 19.81 2.65C20.04 2.65 20.39 2.64 20.86 2.62C21.32 2.6 21.67 2.58 21.9 2.58C22.02 2.58 22.09 2.65 22.09 2.78C22.09 3.32 22.05 4.13 21.97 5.21C21.89 6.29 21.85 7.1 21.85 7.64C21.85 7.89 21.92 8.04 22.05 8.08C22.24 8.14 23.16 8.17 24.82 8.17C26.37 8.17 27.26 8.14 27.5 8.08C27.68 8.04 27.76 7.89 27.76 7.64C27.76 7.12 27.74 6.33 27.69 5.28C27.64 4.23 27.61 3.45 27.61 2.92C27.61 2.7 27.7 2.58 27.88 2.58C28.09 2.58 28.41 2.6 28.84 2.62C29.27 2.64 29.59 2.65 29.81 2.65C30.02 2.65 30.34 2.64 30.77 2.62C31.2 2.6 31.52 2.58 31.73 2.58C31.94 2.58 32.05 2.67 32.05 2.84C32.05 3.67 32.01 4.92 31.94 6.6C31.88 8.27 31.84 9.53 31.84 10.36C31.84 11.15 31.88 12.33 31.96 13.9C32.03 15.47 32.07 16.65 32.07 17.43Z" />
			<path id="Path 75" class="shp0" d="M50.63 17.43C50.63 17.65 50.53 17.76 50.32 17.76L46.49 17.76C46.28 17.76 46.18 17.64 46.18 17.38C46.18 16.65 46.2 15.56 46.26 14.11C46.31 12.65 46.34 11.56 46.34 10.83C46.34 10.62 46.31 10.51 46.24 10.49C46.16 10.54 45.68 11.65 44.79 13.84C44.27 15.12 43.75 16.4 43.23 17.68C43.16 17.84 43.07 17.94 42.96 17.97C42.93 17.97 42.78 17.98 42.53 17.98C42.15 17.98 41.93 17.91 41.86 17.76C41.47 16.97 40.96 15.81 40.32 14.3C39.65 12.7 39.14 11.54 38.8 10.83C38.78 10.79 38.75 10.75 38.7 10.71C38.65 10.77 38.63 10.88 38.63 11.02C38.63 11.73 38.64 12.79 38.68 14.2C38.72 15.62 38.73 16.68 38.73 17.38C38.73 17.64 38.63 17.76 38.43 17.76L34.82 17.76C34.67 17.76 34.59 17.74 34.55 17.69C34.52 17.64 34.5 17.56 34.5 17.45C34.5 16.66 34.54 15.48 34.62 13.91C34.69 12.33 34.73 11.15 34.73 10.36C34.73 9.53 34.7 7.96 34.62 5.66C34.62 5.06 34.58 4.17 34.53 2.99L34.51 2.8C34.51 2.66 34.66 2.58 34.97 2.58C35.37 2.58 35.96 2.57 36.75 2.55C37.55 2.52 38.14 2.51 38.54 2.51C38.62 2.51 38.73 2.66 38.87 2.96L42.03 9.9C42.26 10.37 42.44 10.6 42.59 10.6C42.67 10.6 42.84 10.33 43.1 9.79C43.83 8.28 44.91 5.99 46.34 2.94C46.46 2.66 46.59 2.52 46.74 2.52C46.95 2.52 47.26 2.53 47.69 2.55C48.11 2.57 48.43 2.58 48.64 2.58C48.82 2.58 49.1 2.57 49.47 2.53C49.84 2.49 50.12 2.48 50.3 2.48C50.51 2.48 50.62 2.56 50.62 2.74C50.62 3.59 50.59 4.86 50.53 6.55C50.47 8.24 50.44 9.51 50.44 10.36C50.44 11.15 50.47 12.33 50.54 13.9C50.6 15.47 50.63 16.65 50.63 17.43Z" />
			<path id="Path 76" class="shp0" d="M65.49 6.51C65.49 6.82 65.44 7.09 65.32 7.32C64.38 9.19 63.09 11.16 61.46 13.22C61.23 13.52 61.11 13.8 61.11 14.04C61.11 14.42 61.14 15 61.18 15.76C61.22 16.52 61.24 17.09 61.24 17.47C61.24 17.6 61.21 17.68 61.16 17.71C61.14 17.72 61.04 17.73 60.87 17.76C60.61 17.81 59.96 17.83 58.92 17.83C57.87 17.83 57.21 17.81 56.92 17.76C56.71 17.73 56.61 17.63 56.61 17.45C56.61 17.07 56.65 16.48 56.71 15.7C56.78 14.92 56.81 14.33 56.81 13.94C56.81 13.71 56.72 13.46 56.55 13.2C55.68 11.96 54.43 10.07 52.81 7.53C52.64 7.25 52.56 7.02 52.56 6.84C52.56 6.4 52.53 5.75 52.49 4.89C52.45 4.02 52.43 3.37 52.43 2.94C52.43 2.7 52.5 2.58 52.64 2.58C53.08 2.58 53.75 2.6 54.64 2.64C55.54 2.67 56.21 2.69 56.66 2.69C56.82 2.69 56.91 2.75 56.91 2.85C56.91 3.22 56.89 3.78 56.86 4.52C56.82 5.25 56.81 5.81 56.81 6.18C56.81 6.39 57.13 6.93 57.76 7.8C58.27 8.48 58.68 9 59 9.37C59.3 9.02 59.69 8.5 60.18 7.81C60.8 6.94 61.11 6.42 61.11 6.24C61.11 5.88 61.09 5.33 61.03 4.6C60.98 3.87 60.95 3.32 60.95 2.96C60.95 2.81 60.98 2.73 61.05 2.7L61.32 2.7C61.75 2.7 62.4 2.68 63.27 2.64C64.14 2.6 64.79 2.58 65.23 2.58C65.38 2.58 65.45 2.74 65.45 3.05C65.45 3.43 65.46 4.01 65.47 4.78C65.49 5.54 65.49 6.12 65.49 6.51Z" />
			<path id="Path 77" class="shp0" d="M86.5 8.12C86.5 8.14 85.83 9.6 84.49 12.48C83.13 15.43 82.35 17.08 82.15 17.45C82.09 17.58 82.05 17.65 82.03 17.66C82 17.7 81.94 17.73 81.83 17.76C81.65 17.81 81.14 17.83 80.29 17.83C79.51 17.83 79.03 17.81 78.85 17.76C78.71 17.73 78.62 17.7 78.59 17.68C78.57 17.65 78.52 17.59 78.45 17.47C78.41 17.39 78.21 16.88 77.84 15.94L76.66 12.94L75.46 15.98C75.34 16.32 75.13 16.82 74.85 17.47C74.78 17.59 74.73 17.67 74.7 17.69C74.67 17.72 74.59 17.74 74.45 17.76C74.21 17.81 73.73 17.83 73.03 17.83C72.17 17.83 71.65 17.81 71.48 17.76C71.35 17.73 71.25 17.63 71.17 17.45C68.35 11.64 66.93 8.53 66.93 8.12C66.93 7.55 66.95 6.68 66.99 5.53C67.03 4.38 67.05 3.52 67.05 2.94C67.05 2.7 67.12 2.58 67.27 2.58C67.68 2.58 68.3 2.6 69.13 2.64C69.97 2.67 70.59 2.69 71.01 2.69C71.18 2.69 71.26 2.76 71.26 2.9C71.26 3.48 71.23 4.35 71.18 5.51C71.12 6.68 71.1 7.55 71.1 8.12C71.1 8.34 71.36 9.03 71.89 10.19C72.36 11.23 72.71 11.93 72.93 12.3C73.03 12.49 73.11 12.58 73.14 12.58C73.2 12.58 73.35 12.23 73.59 11.54C74.26 9.6 74.61 8.45 74.62 8.1C74.65 7.44 74.66 6.59 74.64 5.57C74.61 4.09 74.6 3.24 74.6 3.03C74.6 2.89 74.61 2.81 74.64 2.78C74.66 2.76 74.74 2.74 74.87 2.71C75.24 2.67 75.88 2.65 76.78 2.65C78.15 2.65 78.84 2.75 78.84 2.94C78.84 3.42 78.82 4.17 78.79 5.19C78.75 6.18 78.74 6.93 78.75 7.44L78.75 7.99C78.75 8.36 79.12 9.53 79.86 11.51C80.11 12.19 80.26 12.54 80.31 12.54C80.35 12.54 80.42 12.44 80.53 12.26C80.73 11.9 81.06 11.2 81.5 10.16C82 9.02 82.25 8.34 82.25 8.12C82.25 7.54 82.22 6.67 82.17 5.5C82.12 4.34 82.09 3.46 82.09 2.89C82.09 2.76 82.17 2.69 82.34 2.69C82.76 2.69 83.4 2.67 84.26 2.64C85.11 2.6 85.75 2.58 86.18 2.58C86.31 2.58 86.38 2.73 86.38 3.02C86.38 3.59 86.4 4.44 86.44 5.58C86.48 6.71 86.5 7.56 86.5 8.12Z" />
			<path id="Path 78" class="shp0" d="M98.74 11.5C98.53 11.12 98.24 10.74 97.86 10.36C97.55 10.04 97.38 9.87 97.38 9.85C97.38 9.8 97.52 9.64 97.8 9.36C98.12 9.02 98.38 8.67 98.56 8.32C98.84 7.79 98.98 7.18 98.98 6.54C98.98 5.3 98.36 4.29 97.13 3.5C96.1 2.85 94.98 2.51 93.75 2.48C93.7 3.18 93.69 3.88 93.73 4.58C93.75 4.89 93.85 5.16 94.08 5.38C94.71 5.99 94.94 6.76 94.95 7.61C94.96 8.2 94.93 8.77 94.7 9.31C94.57 9.61 94.4 9.87 94.16 10.09C93.74 10.46 93.22 10.46 92.81 10.08C92.39 9.7 92.17 9.21 92.08 8.67C91.96 7.87 91.97 7.09 92.25 6.32C92.37 6.02 92.54 5.75 92.77 5.53C93.12 5.18 93.25 4.78 93.26 4.29C93.27 3.69 93.25 3.08 93.22 2.48C91.84 2.53 90.68 2.82 89.75 3.4C88.56 4.16 87.97 5.26 87.97 6.71C87.97 7.3 88.09 7.83 88.35 8.29C88.5 8.58 88.74 8.88 89.06 9.21C89.3 9.46 89.43 9.64 89.43 9.73L88.98 10.16C88.61 10.51 88.32 10.87 88.11 11.23C87.8 11.75 87.64 12.28 87.64 12.85C87.64 14.56 88.23 15.84 89.41 16.7C90.36 17.39 91.64 17.75 93.21 17.81C93.21 17.76 93.22 17.7 93.22 17.65C93.21 17.19 93.12 16.07 92.81 15.72C92.57 15.44 92.5 15.1 92.49 14.74C92.49 14.14 92.65 12.59 92.68 11.85C92.69 11.77 92.65 11.64 92.77 11.64C92.88 11.65 92.84 11.77 92.85 11.85C92.87 12.93 92.87 12.88 92.9 13.96C92.9 14.03 92.84 14.16 92.97 14.16C93.11 14.17 93.06 14.04 93.06 13.96C93.09 12.9 93.14 12.96 93.17 11.9C93.18 11.83 93.18 11.76 93.19 11.7C93.19 11.67 93.21 11.64 93.24 11.63C93.28 11.63 93.3 11.67 93.3 11.7C93.31 11.74 93.31 11.78 93.31 11.83C93.34 12.89 93.35 12.82 93.39 13.88C93.39 13.94 93.39 13.99 93.4 14.05C93.4 14.11 93.4 14.17 93.48 14.17C93.56 14.17 93.56 14.11 93.57 14.06C93.57 13.99 93.57 13.92 93.57 13.86C93.61 12.81 93.66 12.9 93.69 11.85C93.69 11.78 93.66 11.64 93.76 11.64C93.85 11.64 93.82 11.78 93.82 11.85C93.86 12.93 93.87 12.89 93.9 13.97C93.9 14.01 93.9 14.04 93.9 14.07C93.9 14.13 93.93 14.17 93.98 14.17C94.04 14.17 94.07 14.13 94.07 14.08C94.07 14.03 94.07 13.99 94.07 13.95C94.09 12.89 94.13 12.98 94.15 11.92C94.15 11.87 94.16 11.81 94.16 11.75C94.17 11.7 94.17 11.63 94.24 11.64C94.31 11.64 94.31 11.71 94.31 11.76C94.32 11.88 94.33 12 94.34 12.12C94.39 13.28 94.42 13.31 94.47 14.47C94.48 14.66 94.47 14.85 94.44 15.04C94.42 15.23 94.37 15.41 94.26 15.56C94.17 15.69 94.09 15.83 93.99 15.95C93.82 16.17 93.76 17.11 93.76 17.38C93.76 17.53 93.76 17.68 93.76 17.83C95.24 17.81 96.48 17.46 97.48 16.75C98.64 15.94 99.22 14.78 99.22 13.32C99.22 12.68 99.07 12.07 98.74 11.5Z" />
		</g>
	</g>
</svg>